<svg clip-rule="evenodd" fill-rule="evenodd" height="300" image-rendering="optimizeQuality" shape-rendering="geometricPrecision" text-rendering="geometricPrecision" viewBox="0 0 2667 2667" width="300" xmlns="http://www.w3.org/2000/svg" version="1.1" xmlns:xlink="http://www.w3.org/1999/xlink" xmlns:svgjs="http://svgjs.dev/svgjs"><g width="100%" height="100%" transform="matrix(1,0,0,1,0,0)"><g id="Layer_x0020_1"><path d="m1333 2667c-735 0-1333-598-1333-1334 0-735 598-1333 1333-1333 736 0 1334 598 1334 1333 0 736-598 1334-1334 1334z" fill="#153b4f" fill-opacity="1" data-original-color="#7f4328ff" stroke="none" stroke-opacity="1"/><g fill="#fff"><path d="m1890 1207c-163 0-296-133-296-297 0-163 133-296 296-296 164 0 297 133 297 296 0 164-133 297-297 297zm0-122c12 0 20-9 20-20v-30c0-11-9-20-20-20s-20 9-20 20v30c0 11 9 20 20 20zm0-108c12 0 20-8 20-20v-43h50c11 0 20-9 20-20v-138c0-11-9-20-20-20h-139c-11 0-20 9-20 20v69c0 11 9 20 20 20s20-9 20-20v-49h99v98h-50c-11 0-20 9-20 20v63c0 11 9 20 20 20z" fill="#ffffff" fill-opacity="1" data-original-color="#ffffffff" stroke="none" stroke-opacity="1"/><g id="_497771480"><path d="m680 1678c-6 0-12-2-17-5-104-70-170-195-181-343-25-335 204-549 426-637 186-74 370-66 468 15 9-34 13-76-7-95-10-10-12-26-4-38s23-17 36-11c50 20 137 89 169 187 12 3 23 6 34 10-23 45-36 96-36 149 0 179 144 323 322 323 11 0 21 0 32-1 10 73 8 146-6 210-22 96-68 168-136 208-10 6-22 6-32-1-31-21-55-64-71-126s-21-129-18-176c-19 7-34 21-44 40-6 10-16 16-27 16-12-1-22-8-27-18-1-3-5-9-8-15-10-17-24-39-32-66-101 65-246 103-343 106-88 2-240-11-310-117-61 57-65 106-69 162-5 64-10 136-99 216-6 5-13 7-20 7z" fill="#ffffff" fill-opacity="1" data-original-color="#ffffffff" stroke="none" stroke-opacity="1"/><path d="m1212 2105s-1 0-2 0c-275 0-490-161-550-404 6 3 13 4 20 4 14 0 27-5 37-14h1c39-35 70-76 88-125 13-36 17-71 20-109 4-53 9-87 40-123 75 85 205 105 312 102 104-2 235-39 330-93 6 14 14 27 22 41 2 4 5 8 7 12 9 20 28 32 50 33 18 0 35-7 45-21 3 42 9 84 19 122 13 51 37 110 82 141 15 11 34 13 51 7-66 261-286 427-572 427zm23-223c39 0 78-11 108-35 9-7 10-19 4-28-7-9-20-10-29-4-23 19-53 27-83 27s-60-8-83-27c-9-6-22-5-28 4-7 8-6 21 3 28 30 24 69 35 108 35zm-325-304c4 0 9-1 12-4 24-19 54-27 84-27 29 0 60 8 83 27 9 7 21 5 28-4 7-8 6-21-3-28-31-24-70-35-108-35-39 0-78 11-109 35-8 7-10 20-3 29 4 4 10 7 16 7zm444 0c5 0 9-1 12-4 24-19 54-27 84-27 29 0 60 8 83 27 9 7 22 5 28-4 7-8 6-21-3-28-31-24-70-35-108-35-39 0-78 11-108 35-9 7-11 20-4 29 4 4 10 7 16 7z" fill="#ffffff" fill-opacity="1" data-original-color="#ffffffff" stroke="none" stroke-opacity="1"/></g></g></g></g></svg>