<svg width="16" height="17" viewBox="0 0 16 17" fill="none" xmlns="http://www.w3.org/2000/svg">
<path fill-rule="evenodd" clip-rule="evenodd" d="M6.73084 2.26301C7.12816 1.03082 8.8715 1.03082 9.26882 2.26301L10.3739 5.69003L13.9606 5.69003C15.2498 5.69003 15.7885 7.33767 14.7483 8.0992L11.8378 10.23L12.9474 13.6712C13.3441 14.9014 11.9338 15.9198 10.8908 15.1562L7.99983 13.0397L5.10885 15.1562C4.0659 15.9198 2.65555 14.9014 3.05224 13.6712L4.16187 10.23L1.2514 8.0992C0.211197 7.33767 0.749851 5.69003 2.03902 5.69003H5.62579L6.73084 2.26301ZM9.10488 6.09922L7.99983 2.6722L6.89478 6.09922C6.71717 6.65003 6.20452 7.02337 5.62578 7.02337H2.03902L4.94949 9.15413C5.41325 9.49365 5.60725 10.0921 5.43086 10.6392L4.32123 14.0804L7.21221 11.9639C7.68117 11.6206 8.31849 11.6206 8.78745 11.9639L11.6784 14.0804L10.5688 10.6392C10.3924 10.0921 10.5864 9.49365 11.0502 9.15413L13.9606 7.02337H10.3739C9.79514 7.02337 9.28249 6.65003 9.10488 6.09922Z" fill="#FF9E2A"/>
</svg>
