<svg xmlns="http://www.w3.org/2000/svg" version="1.1" xmlns:xlink="http://www.w3.org/1999/xlink" width="512" height="512" x="0" y="0" viewBox="0 0 24 24" style="enable-background:new 0 0 512 512" xml:space="preserve"><g><path d="M12 18a5.2 5.2 0 0 1-1.53-.23 5.35 5.35 0 0 1-1.83-1l1.55-1.55A2.67 2.67 0 0 0 12 16h.27c1.26-.13 2.37-1.31 3-3A10.68 10.68 0 0 0 16 9.43l5.72-5.71-1.43-1.43-4.5 4.51L14 8.59l-3.48 3.47L9 13.59 7.28 15.3l-1.44 1.44-3.55 3.55 1.42 1.42 3.5-3.5a7.49 7.49 0 0 0 1.72 1.1 7.08 7.08 0 0 0 2.07.62V22h2v-2.07c3.66-.51 6.55-3.8 7-7.93h-2c-.48 3.39-3 6-6 6zm1.57-6.15C13.11 13.26 12.38 14 12 14a.69.69 0 0 1-.4-.18l2-2zM4.81 15a9.85 9.85 0 0 1-.76-3h2a7.8 7.8 0 0 0 .3 1.39zm3.46-3.46A11 11 0 0 1 8 9c0-3.87 1.79-7 4-7 1.26 0 2.39 1 3.13 2.63l-1.55 1.55C13.12 4.75 12.38 4 12 4c-.58 0-2 1.75-2 5v.73z" fill="#f80909" opacity="1" data-original="#000000"></path></g></svg>