<svg height="300" viewBox="0 0 56 56" width="300" xmlns="http://www.w3.org/2000/svg" version="1.1" xmlns:xlink="http://www.w3.org/1999/xlink" xmlns:svgjs="http://svgjs.dev/svgjs"><g width="100%" height="100%" transform="matrix(0.9,0,0,0.9,2.8000000000000007,2.8000000000000007)"><g id="Page-1" fill="none" fill-rule="evenodd"><g id="030---Lockdown" fill="rgb(0,0,0)" fill-rule="nonzero"><path id="Shape" d="m31 18h-12v13h12zm-2.241 9.349c.2485449.2690133.3301409.6523779.2126907.9992902-.1174502.3469124-.415153.6018621-.7760016.66456-.3608485.0626979-.7271025-.0768884-.9546891-.3638502l-2.241-2.613-2.241 2.615c-.36484.3948857-.9766102.4306334-1.384959.0809275-.4083488-.3497058-.4671163-.9596952-.133041-1.3809275l2.442-2.851-2.442-2.849c-.3340753-.4212323-.2753078-1.0312217.133041-1.3809275.4083488-.3497059 1.020119-.3139582 1.384959.0809275l2.241 2.613 2.241-2.615c.36484-.3948857.9766102-.4306334 1.384959-.0809275.4083488.3497058.4671163.9596952.133041 1.3809275l-2.442 2.851z" fill="#153b4f" fill-opacity="1" data-original-color="#000000ff" stroke="none" stroke-opacity="1"/><path id="Shape" d="m44 30c.6695307.0077621 1.3377507.0612197 2 .16v-12.16h-13v13h5.83c1.6437148-.6602466 3.3986378-.9996901 5.17-1zm-8-1c-.3905653-.0000304-.745371-.227441-.9085088-.5823033-.1631378-.3548624-.1047492-.7722273.1495088-1.0686967l2.442-2.849-2.442-2.849c-.3340753-.4212323-.2753078-1.0312217.133041-1.3809275.4083488-.3497059 1.020119-.3139582 1.384959.0809275l2.241 2.613 2.241-2.615c.36484-.3948857.9766102-.4306334 1.384959-.0809275.4083488.3497058.4671163.9596952.133041 1.3809275l-2.442 2.851 2.442 2.849c.2485449.2690133.3301409.6523779.2126907.9992902-.1174502.3469124-.415153.6018621-.7760016.66456-.3608485.0626979-.7271025-.0768884-.9546891-.3638502l-2.241-2.613-2.241 2.615c-.1899629.2215002-.4671983.3489773-.759.349z" fill="#153b4f" fill-opacity="1" data-original-color="#000000ff" stroke="none" stroke-opacity="1"/><path id="Shape" d="m33 35.37c.6921415-.8821462 1.4878538-1.6778585 2.37-2.37h-2.37z" fill="#153b4f" fill-opacity="1" data-original-color="#000000ff" stroke="none" stroke-opacity="1"/><path id="Shape" d="m4 48c-1.10320187-.0032948-1.9967052-.8967981-2-2v-28c.0032948-1.1032019.89679813-1.9967052 2-2h42c1.1032019.0032948 1.9967052.8967981 2 2v12.59c.6858849.2077427 1.354569.4685295 2 .78v-17.37h-50v33c.0049422 1.6548028 1.3451972 2.9950578 3 3h28.37c-.3114705-.645431-.5722573-1.3141151-.78-2z" fill="#153b4f" fill-opacity="1" data-original-color="#000000ff" stroke="none" stroke-opacity="1"/><path id="Shape" d="m50 9c-.0049422-1.6548028-1.3451972-2.9950578-3-3h-2c0 2.209139-1.790861 4-4 4s-4-1.790861-4-4h-8c0 2.209139-1.790861 4-4 4s-4-1.790861-4-4h-8c0 2.209139-1.790861 4-4 4s-4-1.790861-4-4h-2c-1.6548028.0049422-2.9950578 1.3451972-3 3v3h50z" fill="#153b4f" fill-opacity="1" data-original-color="#000000ff" stroke="none" stroke-opacity="1"/><path id="Shape" d="m41 8c1.1032019-.0032948 1.9967052-.89679813 2-2v-4c0-1.1045695-.8954305-2-2-2s-2 .8954305-2 2v4c.0032948 1.10320187.8967981 1.9967052 2 2z" fill="#153b4f" fill-opacity="1" data-original-color="#000000ff" stroke="none" stroke-opacity="1"/><path id="Shape" d="m25 8c1.1032019-.0032948 1.9967052-.89679813 2-2v-4c0-1.1045695-.8954305-2-2-2s-2 .8954305-2 2v4c.0032948 1.10320187.8967981 1.9967052 2 2z" fill="#153b4f" fill-opacity="1" data-original-color="#000000ff" stroke="none" stroke-opacity="1"/><path id="Shape" d="m9 8c1.1032019-.0032948 1.9967052-.89679813 2-2v-4c0-1.1045695-.8954305-2-2-2s-2 .8954305-2 2v4c.0032948 1.10320187.89679813 1.9967052 2 2z" fill="#153b4f" fill-opacity="1" data-original-color="#000000ff" stroke="none" stroke-opacity="1"/><path id="Shape" d="m31 33h-12v13h11.16c-.0987803-.6622493-.1522379-1.3304693-.16-2 .0003099-1.7713622.3397534-3.5262852 1-5.17zm-2.241 9.349c.2485449.2690133.3301409.6523779.2126907.9992902-.1174502.3469124-.415153.6018621-.7760016.66456-.3608485.0626979-.7271025-.0768884-.9546891-.3638502l-2.241-2.613-2.241 2.615c-.36484.3948857-.9766102.4306334-1.384959.0809275-.4083488-.3497058-.4671163-.9596952-.133041-1.3809275l2.442-2.851-2.442-2.849c-.3340753-.4212323-.2753078-1.0312217.133041-1.3809275.4083488-.3497059 1.020119-.3139582 1.384959.0809275l2.241 2.613 2.241-2.615c.36484-.3948857.9766102-.4306334 1.384959-.0809275.4083488.3497058.4671163.9596952.133041 1.3809275l-2.442 2.851z" fill="#153b4f" fill-opacity="1" data-original-color="#000000ff" stroke="none" stroke-opacity="1"/><path id="Shape" d="m48 40c0-2.209139-1.790861-4-4-4s-4 1.790861-4 4v1h8z" fill="#153b4f" fill-opacity="1" data-original-color="#000000ff" stroke="none" stroke-opacity="1"/><path id="Shape" d="m44 32c-6.627417 0-12 5.372583-12 12s5.372583 12 12 12 12-5.372583 12-12c-.0055141-6.6251317-5.3748683-11.9944859-12-12zm7 19c-.0032948 1.1032019-.8967981 1.9967052-2 2h-10c-1.1032019-.0032948-1.9967052-.8967981-2-2v-8c.0042869-.7102221.3849109-1.3648954 1-1.72v-1.28c0-3.3137085 2.6862915-6 6-6s6 2.6862915 6 6v1.28c.6150891.3551046.9957131 1.0097779 1 1.72z" fill="#153b4f" fill-opacity="1" data-original-color="#000000ff" stroke="none" stroke-opacity="1"/><path id="Shape" d="m39 51h10v-8h-10zm5-5c.5522847 0 1 .4477153 1 1s-.4477153 1-1 1-1-.4477153-1-1 .4477153-1 1-1z" fill="#153b4f" fill-opacity="1" data-original-color="#000000ff" stroke="none" stroke-opacity="1"/><path id="Shape" d="m4 46h13v-13h-13zm3.241-9.349c-.33407529-.4212323-.27530784-1.0312217.13304098-1.3809275.40834881-.3497059 1.02011905-.3139582 1.38495902.0809275l2.241 2.613 2.241-2.615c.36484-.3948857.9766102-.4306334 1.384959-.0809275.4083488.3497058.4671163.9596952.133041 1.3809275l-2.442 2.851 2.442 2.849c.2485449.2690133.3301409.6523779.2126907.9992902-.1174502.3469124-.415153.6018621-.7760016.66456-.3608485.0626979-.7271025-.0768884-.9546891-.3638502l-2.241-2.613-2.241 2.615c-.36483997.3948857-.97661021.4306334-1.38495902.0809275-.40834882-.3497058-.46711627-.9596952-.13304098-1.3809275l2.442-2.851z" fill="#153b4f" fill-opacity="1" data-original-color="#000000ff" stroke="none" stroke-opacity="1"/><path id="Rectangle-path" d="m4 18h13v13h-13z" fill="#153b4f" fill-opacity="1" data-original-color="#000000ff" stroke="none" stroke-opacity="1"/></g></g></g></svg>