<svg xmlns="http://www.w3.org/2000/svg" version="1.1" xmlns:xlink="http://www.w3.org/1999/xlink" width="512" height="512" x="0" y="0" viewBox="0 0 24 24" style="enable-background:new 0 0 512 512" xml:space="preserve" class=""><g><path d="M11.9 17.5c-.3 0-.6-.1-.7-.3l-4.4-4.8c-.4-.4-.3-1 .1-1.4s1-.3 1.4.1l3.7 4 8.4-7.8c.4-.4 1-.4 1.4.1.4.4.4 1-.1 1.4l-9.1 8.5c-.2.1-.5.2-.7.2z" fill="#00baff" opacity="1" data-original="#000000" class=""></path><path d="M11.5 12.7c-.3 0-.5-.1-.7-.3-.4-.4-.4-1 .1-1.4l4.5-4.2c.4-.4 1-.4 1.4.1.4.4.4 1-.1 1.4l-4.5 4.2c-.2.1-.5.2-.7.2zM6.9 17c-.3 0-.5-.1-.7-.3l-3.9-4.2c-.4-.4-.3-1 .1-1.4s1-.3 1.4.1l3.9 4.2c.4.4.3 1-.1 1.4-.2.1-.5.2-.7.2z" fill="#00baff" opacity="1" data-original="#000000" class=""></path></g></svg>