<svg width="24" height="25" viewBox="0 0 24 25" fill="none" xmlns="http://www.w3.org/2000/svg">
<path d="M12.5303 20.364L20.1271 12.7672C21.9937 10.9006 22.2691 7.82976 20.5027 5.8681C20.0602 5.37532 19.522 4.97786 18.9208 4.69996C18.3197 4.42206 17.6682 4.26956 17.0062 4.25175C16.3441 4.23395 15.6854 4.35122 15.0702 4.59641C14.455 4.8416 13.8962 5.20956 13.4279 5.67785L12 7.1057L10.7672 5.8729C8.9006 4.00629 5.82976 3.73091 3.86811 5.49734C3.37533 5.93981 2.97786 6.47803 2.69997 7.07918C2.42207 7.68033 2.26956 8.3318 2.25176 8.99383C2.23396 9.65587 2.35123 10.3146 2.59642 10.9298C2.84161 11.545 3.20957 12.1038 3.67786 12.5721L11.4697 20.364C11.6103 20.5046 11.8011 20.5836 12 20.5836C12.1989 20.5836 12.3897 20.5046 12.5303 20.364Z" fill="#153B4F" stroke="#153B4F" stroke-width="1.5" stroke-linecap="round" stroke-linejoin="round"/>
</svg>
