<svg width="24" height="24" viewBox="0 0 24 24" fill="none" xmlns="http://www.w3.org/2000/svg">
<path d="M21.7961 20.2041L17.3439 15.75C18.6788 14.0104 19.302 11.8282 19.0871 9.64606C18.8723 7.46389 17.8354 5.44515 16.1868 3.99936C14.5383 2.55356 12.4015 1.78898 10.21 1.8607C8.01841 1.93243 5.9362 2.83509 4.3857 4.38558C2.83521 5.93607 1.93255 8.01829 1.86083 10.2098C1.7891 12.4014 2.55369 14.5382 3.99948 16.1867C5.44527 17.8353 7.46401 18.8722 9.64618 19.087C11.8284 19.3019 14.0106 18.6787 15.7501 17.3437L20.2061 21.8006C20.3107 21.9053 20.4349 21.9883 20.5717 22.0449C20.7084 22.1015 20.8549 22.1307 21.0029 22.1307C21.1509 22.1307 21.2975 22.1015 21.4342 22.0449C21.5709 21.9883 21.6952 21.9053 21.7998 21.8006C21.9044 21.696 21.9875 21.5717 22.0441 21.435C22.1007 21.2983 22.1299 21.1517 22.1299 21.0037C22.1299 20.8557 22.1007 20.7092 22.0441 20.5725C21.9875 20.4357 21.9044 20.3115 21.7998 20.2069L21.7961 20.2041ZM4.12512 10.5C4.12512 9.23914 4.499 8.0066 5.1995 6.95823C5.89999 5.90987 6.89563 5.09277 8.06051 4.61026C9.22539 4.12775 10.5072 4.00151 11.7438 4.24749C12.9804 4.49347 14.1164 5.10063 15.0079 5.99219C15.8995 6.88375 16.5066 8.01966 16.7526 9.25629C16.9986 10.4929 16.8724 11.7747 16.3898 12.9396C15.9073 14.1045 15.0902 15.1001 14.0419 15.8006C12.9935 16.5011 11.761 16.875 10.5001 16.875C8.80989 16.8733 7.1894 16.201 5.99423 15.0059C4.79906 13.8107 4.12685 12.1902 4.12512 10.5Z" fill="#2B2B2B" fill-opacity="0.75"/>
<path d="M21.7629 20.2372L21.7626 20.2375L21.7679 20.2416L21.769 20.2423C21.8682 20.3421 21.9469 20.4604 22.0008 20.5904C22.0551 20.7215 22.083 20.8619 22.083 21.0037C22.083 21.1456 22.0551 21.286 22.0008 21.4171C21.9465 21.5481 21.867 21.6672 21.7667 21.7675C21.6664 21.8678 21.5473 21.9473 21.4163 22.0016C21.2852 22.0559 21.1448 22.0838 21.0029 22.0838C20.8611 22.0838 20.7206 22.0559 20.5896 22.0016C20.4586 21.9473 20.3395 21.8678 20.2392 21.7675L15.7833 17.3106L15.7542 17.2815L15.7216 17.3066C13.9915 18.6342 11.8211 19.2541 9.65078 19.0404C7.48045 18.8267 5.47267 17.7954 4.03472 16.1558C2.59678 14.5162 1.83634 12.391 1.90768 10.2114C1.97901 8.03172 2.87677 5.9608 4.41885 4.41873C5.96093 2.87665 8.03184 1.97889 10.2115 1.90755C12.3912 1.83622 14.5163 2.59665 16.1559 4.0346C17.7955 5.47255 18.8268 7.48033 19.0405 9.65066C19.2542 11.821 18.6343 13.9913 17.3067 15.7215L17.2817 15.7541L17.3107 15.7831L21.7629 20.2372ZM4.07824 10.5V10.5C4.07999 12.2027 4.75714 13.8351 5.96108 15.039C7.16503 16.243 8.79743 16.9201 10.5001 16.9219H10.5001C11.7702 16.9219 13.0118 16.5452 14.0679 15.8396C15.124 15.1339 15.9471 14.131 16.4332 12.9575C16.9192 11.7841 17.0464 10.4929 16.7986 9.24715C16.5508 8.00143 15.9392 6.85716 15.0411 5.95904C14.143 5.06093 12.9987 4.4493 11.753 4.20151C10.5072 3.95372 9.21601 4.0809 8.04257 4.56696C6.86913 5.05301 5.86617 5.87612 5.16052 6.93219C4.45488 7.98826 4.07824 9.22987 4.07824 10.5Z" stroke="#2B2B2B" stroke-opacity="0.75" stroke-width="0.09375"/>
</svg>
