<?xml version="1.0" encoding="iso-8859-1"?>
<!-- Generator: Adobe Illustrator 16.0.0, SVG Export Plug-In . SVG Version: 6.00 Build 0)  -->
<!DOCTYPE svg PUBLIC "-//W3C//DTD SVG 1.1//EN" "http://www.w3.org/Graphics/SVG/1.1/DTD/svg11.dtd">
<svg version="1.1" id="Capa_1" xmlns="http://www.w3.org/2000/svg" xmlns:xlink="http://www.w3.org/1999/xlink" x="0px" y="0px"
	 width="32.68px" height="32.68px" viewBox="0 0 32.68 32.68" style="enable-background:new 0 0 32.68 32.68;" xml:space="preserve"
	>
<g>
	<path d="M7.679,16.34l-3.84,5.226L0,16.34h2.339c0-7.72,6.281-14.001,14.001-14.001v3c-6.066,0-11.001,4.935-11.001,11.001H7.679z
		 M28.841,11.116l-3.84,5.225h2.34c0,6.064-4.935,11-11.001,11v3c7.721,0,14.001-6.279,14.001-14h2.339L28.841,11.116z
		 M16.331,8.823c0-3.038,2.462-5.5,5.5-5.5s5.5,2.462,5.5,5.5c0,3.037-2.462,5.5-5.5,5.5S16.331,11.86,16.331,8.823z M19.744,9.415
		h-0.348l-0.103,0.679h0.498c0.062,0.629,0.166,1.046,0.312,1.254c0.25,0.356,0.895,0.534,1.928,0.534
		c0.889,0,1.467-0.088,1.736-0.263c0.363-0.234,0.545-0.756,0.545-1.565v-0.19h-1.052l0.009,0.246
		c0.01,0.359-0.066,0.596-0.229,0.712c-0.154,0.108-0.492,0.162-1.017,0.162c-0.588,0-0.938-0.097-1.056-0.291
		c-0.06-0.1-0.104-0.3-0.134-0.599h1.586l0.102-0.679H20.8c-0.006-0.197-0.008-0.396-0.008-0.599V8.735h1.832l0.101-0.679H20.82
		C20.849,7.719,20.906,7.5,20.99,7.4c0.132-0.159,0.494-0.238,1.088-0.238c0.441,0,0.727,0.035,0.854,0.104
		c0.188,0.105,0.284,0.353,0.284,0.74v0.142h1.051l-0.004-0.125c-0.024-0.723-0.155-1.192-0.396-1.407
		c-0.262-0.235-0.789-0.352-1.578-0.352c-1.03,0-1.713,0.143-2.051,0.429c-0.28,0.237-0.444,0.691-0.494,1.363h-0.348l-0.103,0.679
		h0.435C19.732,8.986,19.736,9.213,19.744,9.415z M17.247,22.571c0,3.037-2.462,5.5-5.5,5.5c-3.038,0-5.5-2.463-5.5-5.5
		s2.462-5.5,5.5-5.5C14.785,17.071,17.247,19.534,17.247,22.571z M14.009,24.141l-3.262,0.021v-0.027
		c0.178-0.111,0.29-0.232,0.335-0.363l0.056-0.387l-0.004-0.288v-0.18h1.478v-0.763h-1.478v-0.896c0-0.368,0.06-0.604,0.178-0.717
		c0.119-0.111,0.377-0.166,0.777-0.166c0.351,0,0.578,0.048,0.681,0.144c0.103,0.098,0.154,0.309,0.154,0.637l0.004,0.115h1.034
		l0.004-0.269c0-0.597-0.133-0.998-0.399-1.204c-0.266-0.207-0.781-0.311-1.545-0.311c-1.115,0-1.737,0.33-1.864,0.99l-0.056,0.644
		v0.229v0.799h-0.67v0.764h0.67v0.352c0,0.555-0.173,0.854-0.519,0.896v0.838h4.428v-0.857L14.009,24.141L14.009,24.141z"/>
</g>
<g>
</g>
<g>
</g>
<g>
</g>
<g>
</g>
<g>
</g>
<g>
</g>
<g>
</g>
<g>
</g>
<g>
</g>
<g>
</g>
<g>
</g>
<g>
</g>
<g>
</g>
<g>
</g>
<g>
</g>
</svg>
