<?xml version="1.0" encoding="utf-8"?>
<!-- Generator: Adobe Illustrator 27.5.0, SVG Export Plug-In . SVG Version: 6.00 Build 0)  -->
<svg version="1.1" xmlns="http://www.w3.org/2000/svg" xmlns:xlink="http://www.w3.org/1999/xlink" x="0px" y="0px"
	 viewBox="0 0 3710 3710" style="enable-background:new 0 0 3710 3710;" xml:space="preserve">
<g id="Background">
	<g>
		<g>
			<rect style="fill:#FFFFFF;" width="3710" height="3710"/>
		</g>
	</g>
</g>
<g id="Illustration">
	<g id="Rental_car_service">
		<path style="fill:#F4F7FA;" d="M1875.646,455.642C1158.708,433.87,537.688,968.841,443.863,1670.789
			C341.279,2438.274,905.89,3128.826,1600.621,3239.428c864.129,137.571,1702.284-658.291,1627.027-1521.683
			C3170.948,1067.254,2604.427,477.772,1875.646,455.642z"/>
		<g>
			<path style="fill:#D8DEE8;" d="M2301.018,689.994l14.472,71.347c-31.021,12.554-60.606,27.553-88.391,44.972l-48.061-54.376
				c-13.113-14.836-35.804-16.067-50.689-2.753l-93.194,83.351c-14.918,13.344-16.405,36.231-3.31,51.122l48.48,55.134
				c-20.484,26.132-38.75,53.987-54.53,83.283l-69.798-23.164c-18.821-6.246-39.276,4.152-45.694,23.23l-40.213,119.532
				c-6.443,19.149,3.614,39.779,22.475,46.068l70.038,23.361c-4.948,32.655-7.014,66.042-6.267,99.821l-72.982,15.441
				c-19.593,4.145-32.356,23.586-28.505,43.433l24.135,124.38c3.868,19.931,22.936,32.729,42.585,28.571l73.199-15.487
				c12.077,31.617,26.629,61.779,43.601,90.137l-56.002,50.515c-15.103,13.621-16.622,37.047-3.388,52.327l82.919,95.724
				c13.284,15.337,36.322,16.685,51.441,3.003l55.996-50.66c25.985,21.056,53.762,39.751,82.975,55.932l-23.728,72.264
				c-6.425,19.566,3.873,40.683,23.007,47.157l119.792,40.535c19.177,6.492,39.905-4.154,46.289-23.766l23.344-71.706
				c32.81,4.978,66.357,6.91,100.286,5.926l14.997,73.94c4.105,20.24,23.503,33.261,43.325,29.067l123.952-26.225
				c19.82-4.193,32.508-24.003,28.344-44.23l-15.092-73.308c31.726-12.73,61.922-28.054,90.268-45.858l48.763,55.454
				c13.539,15.397,36.719,16.753,51.763,3.021l93.983-85.764c15.011-13.698,16.182-37.241,2.625-52.58l-48.603-54.99
				c20.839-26.91,39.264-55.641,55.124-85.808l68.795,22.946c19.226,6.415,39.826-4.166,46-23.62l38.546-121.422
				c6.153-19.382-4.421-40.249-23.606-46.616l-68.136-22.612c4.622-33.425,6.193-67.56,4.858-102.029l70-14.81
				c19.651-4.157,32.125-23.628,27.865-43.477l-26.593-123.86c-4.244-19.764-23.567-32.417-43.159-28.271l-69.793,14.766
				c-12.762-31.813-28.006-62.089-45.707-90.443l52.743-47.72c14.832-13.417,15.978-36.417,2.566-51.366l-83.708-93.314
				c-13.361-14.894-36.194-16.133-51.008-2.771l-53.08,47.879c-26.326-20.641-54.363-38.949-83.824-54.651l22.191-68.163
				c6.175-18.969-4.154-39.355-23.063-45.542l-118.123-38.643c-18.868-6.172-39.196,4.16-45.409,23.085l-22.436,68.325
				c-32.464-4.561-65.619-6.193-99.139-4.922l-14.562-70.736c-4.008-19.464-23.004-31.903-42.43-27.793l-121.494,25.705
				C2309.615,651.404,2297.068,670.518,2301.018,689.994z M2094.123,1383.432c-47.842-240.723,105.823-475.48,342.963-525.653
				c237.137-50.171,470.044,102.798,520.485,342.972c50.746,241.628-102.242,479.701-341.985,530.423
				C2375.841,1781.898,2142.255,1625.613,2094.123,1383.432z"/>
		</g>
		<g>
			<g>
				<g>
					<defs>
						<path id="SVGID_1_" d="M1215.444,2555.196c86.014-85.731,198.75-224.155,245.856-416.497
							c61.778-252.253-43.604-375.611-44.907-799.494c-0.825-268.017,1.3-455.069,133.3-559.06
							c103.442-81.493,274.256-102.22,380.394-32.77c88.251,57.746,142.121,184.597,160.139,275.759
							c14.684,74.297,6.33,128.815,50.559,166.854c45.201,38.874,92.003,14.686,134.032,43.221
							c85.235,57.869,42.959,259.335,36.127,291.896c-76.005,362.2-400.026,614.697-542.692,723.134
							C1650.292,2337.898,1467.256,2458.152,1215.444,2555.196z"/>
					</defs>
					
						<linearGradient id="SVGID_00000035489315934158896010000000444507463401553536_" gradientUnits="userSpaceOnUse" x1="1215.4438" y1="1630.2969" x2="2327.4443" y2="1630.2969">
						<stop  offset="0" style="stop-color:#FF9085"/>
						<stop  offset="1" style="stop-color:#FB6FBB"/>
					</linearGradient>
					
						<use xlink:href="#SVGID_1_"  style="overflow:visible;fill:url(#SVGID_00000035489315934158896010000000444507463401553536_);"/>
					<clipPath id="SVGID_00000168087700688790089910000001258564654849159561_">
						<use xlink:href="#SVGID_1_"  style="overflow:visible;"/>
					</clipPath>
					<g style="opacity:0.5;clip-path:url(#SVGID_00000168087700688790089910000001258564654849159561_);">
						<path style="fill:#FFFFFF;" d="M1116.757,2625.813l-3.76-9.063c151.854-62.999,281.91-136.568,386.561-218.667
							c154.207-120.973,248.364-257.222,279.854-404.962c24.671-115.744,11.097-234.598-7.692-399.1
							c-15-131.333-37.48-223.074-57.313-304.016c-25.956-105.929-46.459-189.597-37.624-312.221
							c8.964-124.417,46.138-248.942,110.492-370.114l8.665,4.601c-63.708,119.96-100.505,243.172-109.371,366.217
							c-8.723,121.085,11.616,204.091,37.367,309.181c19.903,81.226,42.462,173.288,57.532,305.238
							c9.328,81.663,17.382,152.188,20.086,217.727c2.965,71.834-1.022,130.47-12.544,184.531
							c-31.984,150.051-127.331,288.208-283.396,410.639C1400.264,2488.451,1269.433,2562.472,1116.757,2625.813z"/>
						<path style="fill:#FFFFFF;" d="M1766.464,1502.695l-5.146-2.061c-0.889-0.357-89.965-36.651-180.474-124.352
							c-83.533-80.942-185.588-223.534-197.407-443.186l9.796-0.526c11.64,216.286,112.001,356.684,194.145,436.379
							c76.842,74.552,152.515,111.394,172.498,120.37c64.964-240.067,188.283-393.177,280.651-479.536
							c100.964-94.395,188.014-131.768,188.879-132.133l3.822,9.037c-0.854,0.362-86.602,37.236-186.34,130.583
							c-92.009,86.113-215.102,239.303-279.002,480.068L1766.464,1502.695z"/>
						<path style="fill:#FFFFFF;" d="M1795.715,1858.668l-2.1-2.881c-0.899-1.236-91.319-124.803-206.196-230.922
							c-114.088-105.389-374.96-135.37-377.582-135.661l1.08-9.752c0.663,0.073,67.217,7.585,147.149,28.202
							c74.01,19.091,175.033,53.673,236.012,110.002c105.786,97.721,190.93,210.112,205.328,229.458
							c139.99-48.122,279.65-246.387,372.465-404.924c101.668-173.659,170.545-338.407,171.229-340.051l9.058,3.77
							c-0.687,1.649-69.82,167.012-171.816,341.238c-137.332,234.574-265.6,372.659-381.236,410.416L1795.715,1858.668z"/>
						<path style="fill:#FFFFFF;" d="M1544.311,2372.755l4.621-8.617c36.239-67.589,48.189-137.447,35.515-207.628
							c-10.165-56.295-36.099-113.011-77.078-168.574c-70.013-94.927-160.67-154.109-161.579-154.696l5.329-8.241
							c0.921,0.596,93.083,60.76,164.146,157.114c92.349,125.212,108.47,255.653,46.885,377.871
							c33.02-5.852,147.509-28.491,289.529-82.882c155.123-59.408,375.772-169.943,546.013-359.152l330.948-367.824l7.294,6.563
							l-330.948,367.824c-171.611,190.732-393.836,302.048-550.039,361.846c-169.195,64.771-299.667,84.754-300.964,84.949
							L1544.311,2372.755z"/>
					</g>
				</g>
			</g>
			<g>
				<g>
					<defs>
						<path id="SVGID_00000137842690180978286270000002101606603893305520_" d="M1334.368,2167.938
							c174.657,79.124,408.443,155.001,665.388,153.414c65.573-0.405,470.653-2.906,499.157-174.213
							c10.04-60.344-35.125-90.671-23.111-171.585c14.236-95.876,86.76-114.665,171.197-204.482
							c50.383-53.594,197.831-210.436,132.325-362.74c-39.145-91.013-152.563-176.288-258.724-196.623
							c-155.714-29.827-265.3,85.905-447.333,284.933c-161.366,176.431-166.22,235.203-284.636,360.221
							C1700.748,1949.646,1560.057,2068.632,1334.368,2167.938z"/>
					</defs>
					
						<linearGradient id="SVGID_00000102523600234197074470000017501070782562785973_" gradientUnits="userSpaceOnUse" x1="2338.0549" y1="1117.3962" x2="1953.2382" y2="2150.3269">
						<stop  offset="0.0036" style="stop-color:#E38DDD"/>
						<stop  offset="1" style="stop-color:#9571F6"/>
					</linearGradient>
					
						<use xlink:href="#SVGID_00000137842690180978286270000002101606603893305520_"  style="overflow:visible;fill:url(#SVGID_00000102523600234197074470000017501070782562785973_);"/>
					<clipPath id="SVGID_00000160893189395660335570000001219150769957109180_">
						<use xlink:href="#SVGID_00000137842690180978286270000002101606603893305520_"  style="overflow:visible;"/>
					</clipPath>
					<g style="opacity:0.5;clip-path:url(#SVGID_00000160893189395660335570000001219150769957109180_);">
						<path style="fill:#FFFFFF;" d="M1306.106,2166.955c-64.826,0-129.377-5.891-193.574-17.697
							c-196.665-36.166-382.699-124.135-552.934-261.464l6.159-7.636c168.95,136.291,353.509,223.582,548.549,259.451
							c259.81,47.77,525.874-2.24,790.795-148.656c275.987-152.535,481.6-371.455,605.486-528.246
							c85.693-108.453,139.94-246.633,161.227-410.704l9.728,1.261c-21.516,165.857-76.447,305.66-163.258,415.527
							c-124.443,157.497-331.02,377.425-608.436,530.75C1708.278,2110.946,1505.949,2166.955,1306.106,2166.955z"/>
						<path style="fill:#FFFFFF;" d="M2234.912,1764.2l-1.142-4.26c-0.222-0.827-22.169-84.091-20.275-195.421
							c1.747-102.887,24.76-251.601,124.453-375.786l7.65,6.142c-97.885,121.936-120.529,268.249-122.29,369.519
							c-1.661,95.797,14.52,170.478,18.878,188.727c477.783-76.471,596.664-353.69,621.766-437.045
							c0.803-2.675,1.073-3.553,1.391-4.25l8.928,4.078l-4.464-2.039l4.502,1.945c-0.185,0.472-0.489,1.521-0.964,3.097
							c-25.594,84.996-146.967,368.256-634.078,444.611L2234.912,1764.2z"/>
						<path style="fill:#FFFFFF;" d="M2348.763,2140.245c-107.807,0-259.095-29.289-439.303-143.42l-2.215-1.403l-0.065-2.622
							c-0.061-2.591-4.539-262.306,147.552-544.986l153.233-284.805l8.641,4.648l-153.233,284.805
							c-142.675,265.174-146.465,509.736-146.407,537.499c117.176,73.829,296.15,156.989,487.479,137.727
							c115.091-11.587,180.953-55.479,181.605-55.922l5.513,8.116c-2.728,1.854-68.131,45.55-185.485,57.503
							C2388.658,2139.16,2369.507,2140.245,2348.763,2140.245z"/>
					</g>
				</g>
			</g>
		</g>
		<g>
			
				<linearGradient id="SVGID_00000034805696145629560160000008381623452115328918_" gradientUnits="userSpaceOnUse" x1="2435.1448" y1="2295.6177" x2="2435.1448" y2="2017.2169">
				<stop  offset="0" style="stop-color:#444B8C"/>
				<stop  offset="0.9964" style="stop-color:#3E4177"/>
			</linearGradient>
			<path style="fill:url(#SVGID_00000034805696145629560160000008381623452115328918_);" d="M2920.049,2212.163l22.814-30.347
				l-96.623-158.239c0,0-16.104-28.18-26.84-26.012s-757.774,2.168-768.51,0c-10.736-2.168-26.84,26.012-26.84,26.012
				l-96.623,158.239l22.814,30.347H2920.049z"/>
			
				<linearGradient id="SVGID_00000088114585997750370690000002940504087063671966_" gradientUnits="userSpaceOnUse" x1="2575.4744" y1="2295.6177" x2="2575.4744" y2="2017.2169">
				<stop  offset="0" style="stop-color:#444B8C"/>
				<stop  offset="0.9964" style="stop-color:#3E4177"/>
			</linearGradient>
			<path style="opacity:0.3;fill:url(#SVGID_00000088114585997750370690000002940504087063671966_);" d="M2942.862,2181.815
				l-96.622-158.239c0,0-16.104-28.18-26.84-26.012c-2.545,0.514-46.488,0.906-112.176,1.176
				c-3.509,49.962-11.77,97.527-53.309,126.604c-112.001,77.001-241.503,21-367.504,52.501
				c-27.467,8.36-53.283,20.432-78.325,34.318h711.962L2942.862,2181.815z"/>
			
				<linearGradient id="SVGID_00000136370689766422338360000005084142128092072845_" gradientUnits="userSpaceOnUse" x1="1810.6742" y1="2752.6099" x2="1977.0803" y2="2752.6099">
				<stop  offset="0" style="stop-color:#444B8C"/>
				<stop  offset="0.9964" style="stop-color:#3E4177"/>
			</linearGradient>
			<path style="fill:url(#SVGID_00000136370689766422338360000005084142128092072845_);" d="M1810.674,2652.334v135.541
				c0,0,1.342,63.073,34.892,64.415s101.991,0,101.991,0s29.524-2.684,29.524-22.814c0-20.13,0-100.649,0-100.649L1810.674,2652.334
				z"/>
			
				<linearGradient id="SVGID_00000171677986282538200240000018203283843986642317_" gradientUnits="userSpaceOnUse" x1="2897.2346" y1="2752.6099" x2="3063.6409" y2="2752.6099">
				<stop  offset="0" style="stop-color:#444B8C"/>
				<stop  offset="0.9964" style="stop-color:#3E4177"/>
			</linearGradient>
			<path style="fill:url(#SVGID_00000171677986282538200240000018203283843986642317_);" d="M3063.641,2652.334v135.541
				c0,0-1.342,63.073-34.892,64.415s-101.991,0-101.991,0s-29.524-2.684-29.524-22.814c0-20.13,0-100.649,0-100.649
				L3063.641,2652.334z"/>
			
				<linearGradient id="SVGID_00000070829400516052306150000006594839005929707671_" gradientUnits="userSpaceOnUse" x1="1837.5139" y1="2316.3901" x2="1837.5139" y2="2137.1365">
				<stop  offset="0" style="stop-color:#FCB148"/>
				<stop  offset="0.0521" style="stop-color:#FDBA46"/>
				<stop  offset="0.1424" style="stop-color:#FFC244"/>
				<stop  offset="0.3183" style="stop-color:#FFC444"/>
				<stop  offset="0.4849" style="stop-color:#FDB946"/>
				<stop  offset="0.7754" style="stop-color:#F99C4D"/>
				<stop  offset="0.8658" style="stop-color:#F8924F"/>
				<stop  offset="1" style="stop-color:#F8924F"/>
			</linearGradient>
			<path style="fill:url(#SVGID_00000070829400516052306150000006594839005929707671_);" d="M1924.296,2200.979h-22.366
				c-12.847,0-23.261-10.414-23.261-23.261v-24.406c0-13.913-12.322-24.642-26.09-22.637
				c-37.413,5.447-101.846,19.251-101.846,49.727c0,14.314,15.209,43.838,42.943,44.733c27.734,0.895,123.463,7.157,123.463,7.157
				L1924.296,2200.979z"/>
			
				<linearGradient id="SVGID_00000034069569429667340790000000736091432539262638_" gradientUnits="userSpaceOnUse" x1="3032.7751" y1="2316.3901" x2="3032.7751" y2="2137.1365">
				<stop  offset="0" style="stop-color:#FCB148"/>
				<stop  offset="0.0521" style="stop-color:#FDBA46"/>
				<stop  offset="0.1424" style="stop-color:#FFC244"/>
				<stop  offset="0.3183" style="stop-color:#FFC444"/>
				<stop  offset="0.4849" style="stop-color:#FDB946"/>
				<stop  offset="0.7754" style="stop-color:#F99C4D"/>
				<stop  offset="0.8658" style="stop-color:#F8924F"/>
				<stop  offset="1" style="stop-color:#F8924F"/>
			</linearGradient>
			<path style="fill:url(#SVGID_00000034069569429667340790000000736091432539262638_);" d="M2945.993,2200.979h22.366
				c12.847,0,23.261-10.414,23.261-23.261v-24.406c0-13.913,12.322-24.642,26.09-22.637c37.413,5.447,101.846,19.251,101.846,49.727
				c0,14.314-15.209,43.838-42.944,44.733c-27.734,0.895-123.463,7.157-123.463,7.157L2945.993,2200.979z"/>
			
				<linearGradient id="SVGID_00000016769268179170053590000003368717433194612890_" gradientUnits="userSpaceOnUse" x1="2434.9102" y1="2617.4424" x2="2434.9102" y2="2063.144">
				<stop  offset="0" style="stop-color:#FCB148"/>
				<stop  offset="0.0521" style="stop-color:#FDBA46"/>
				<stop  offset="0.1424" style="stop-color:#FFC244"/>
				<stop  offset="0.3183" style="stop-color:#FFC444"/>
				<stop  offset="0.4849" style="stop-color:#FDB946"/>
				<stop  offset="0.7754" style="stop-color:#F99C4D"/>
				<stop  offset="0.8658" style="stop-color:#F8924F"/>
				<stop  offset="1" style="stop-color:#F8924F"/>
			</linearGradient>
			<path style="fill:url(#SVGID_00000016769268179170053590000003368717433194612890_);" d="M3089.139,2441.642
				c0,0,1.789-35.563-18.788-68.441c-15.286-24.425-79.177-110.043-79.177-110.043l-159.801-264.863
				c-8.075-13.632-19.544-19.906-31.345-22.201c-8.716-2.338-21.347-4.178-39.675-4.595c-59.047-1.342-591.368-1.342-650.416,0
				c-18.309,0.416-30.934,2.253-39.649,4.588c-11.815,2.288-23.297,8.562-31.381,22.208l-159.792,264.863
				c0,0-63.397,85.934-79.177,110.043c-24.156,36.905-18.788,68.441-18.788,68.441s6.71,205.86,4.026,250.146
				c-2.684,44.285,1302.621,44.285,1299.937,0C3082.429,2647.502,3089.139,2441.642,3089.139,2441.642z M2435.592,2201.427h-0.895
				l-472.379-12.078c-5.643-1.128-10.411-2.438-14.492-3.798c12.155-22.807,63.828-118.618,95.755-159.912l783.777,0.864
				c31.974,41.747,83.023,136.403,95.095,159.052c-4.08,1.359-8.845,2.667-14.483,3.795L2435.592,2201.427z"/>
			
				<linearGradient id="SVGID_00000156560346485706848770000009550479430953357751_" gradientUnits="userSpaceOnUse" x1="2435.1436" y1="3460.8533" x2="2435.1436" y2="2646.7864">
				<stop  offset="0" style="stop-color:#FCB148"/>
				<stop  offset="0.0521" style="stop-color:#FDBA46"/>
				<stop  offset="0.1424" style="stop-color:#FFC244"/>
				<stop  offset="0.3183" style="stop-color:#FFC444"/>
				<stop  offset="0.4849" style="stop-color:#FDB946"/>
				<stop  offset="0.7754" style="stop-color:#F99C4D"/>
				<stop  offset="0.8658" style="stop-color:#F8924F"/>
				<stop  offset="1" style="stop-color:#F8924F"/>
			</linearGradient>
			<path style="fill:url(#SVGID_00000156560346485706848770000009550479430953357751_);" d="M2748.993,2794.133
				c0,0,289.946-11.72,327.359-78.69c20.615-36.903,23.718-62.622,22.348-78.277c-0.917-10.483-10.376-18.059-20.791-16.553
				c-35.526,5.137-122.027,17.348-155.883,19.489c-121.77,7.701-851.994,7.701-973.763,0
				c-33.855-2.141-120.357-14.353-155.883-19.489c-10.415-1.506-19.874,6.07-20.791,16.553c-1.37,15.655,1.732,41.374,22.348,78.277
				c37.412,66.969,327.359,78.69,327.359,78.69H2748.993z"/>
			<path style="opacity:0.1;fill:#FFFFFF;" d="M1948.261,2640.103c-33.855-2.141-120.357-14.354-155.883-19.49
				c-5.134-0.743-10.032,0.73-13.793,3.662c18.495,10.199,36.383,21.968,54.31,32.281c0,0,26.276,13.349,54.557,23.569
				c103.948,37.561,525.006,38.5,525.006,38.5s293.043,0.653,500.505-15.75c22.993-1.819,77.233-6.804,124.251-44.625
				c17.29-13.908,28.609-28.24,34.739-36.78c-38.434,5.522-117.827,16.601-149.927,18.632
				C2800.256,2647.804,2070.031,2647.804,1948.261,2640.103z"/>
			
				<linearGradient id="SVGID_00000078728332248557149600000018092114942978947253_" gradientUnits="userSpaceOnUse" x1="2435.1445" y1="1861.905" x2="2435.1445" y2="2591.7275">
				<stop  offset="0" style="stop-color:#FCB148"/>
				<stop  offset="0.0521" style="stop-color:#FDBA46"/>
				<stop  offset="0.1424" style="stop-color:#FFC244"/>
				<stop  offset="0.3183" style="stop-color:#FFC444"/>
				<stop  offset="0.4849" style="stop-color:#FDB946"/>
				<stop  offset="0.7754" style="stop-color:#F99C4D"/>
				<stop  offset="0.8658" style="stop-color:#F8924F"/>
				<stop  offset="1" style="stop-color:#F8924F"/>
			</linearGradient>
			<path style="fill:url(#SVGID_00000078728332248557149600000018092114942978947253_);" d="M2809.041,2467.764l-9.525-23.284
				c-5.019-12.268-16.958-20.284-30.213-20.284h-668.316c-13.255,0-25.195,8.015-30.213,20.284l-9.525,23.284
				c-8.785,21.476,7.01,45.004,30.213,45.004h687.366C2802.031,2512.767,2817.826,2489.24,2809.041,2467.764z"/>
			
				<linearGradient id="SVGID_00000000925476180646320600000007252385693908267678_" gradientUnits="userSpaceOnUse" x1="2435.146" y1="-4404.2451" x2="2435.146" y2="-4160.9717" gradientTransform="matrix(1 0 0 -1 0 -1644.998)">
				<stop  offset="0" style="stop-color:#FCB148"/>
				<stop  offset="0.0521" style="stop-color:#FDBA46"/>
				<stop  offset="0.1424" style="stop-color:#FFC244"/>
				<stop  offset="0.3183" style="stop-color:#FFC444"/>
				<stop  offset="0.4849" style="stop-color:#FDB946"/>
				<stop  offset="0.7754" style="stop-color:#F99C4D"/>
				<stop  offset="0.8658" style="stop-color:#F8924F"/>
				<stop  offset="1" style="stop-color:#F8924F"/>
			</linearGradient>
			<path style="fill:url(#SVGID_00000000925476180646320600000007252385693908267678_);" d="M2806.42,2559.432l-12.537,10.216
				c-1.723,1.403-3.876,2.17-6.098,2.17h-705.276c-2.222,0-4.376-0.767-6.098-2.17l-12.537-10.216
				c-7.041-5.737-2.984-17.138,6.098-17.138h730.351C2809.404,2542.294,2813.461,2553.695,2806.42,2559.432z"/>
			<path style="fill:#FFFFFF;" d="M2091.149,2425.538l-147.618-75.151c0,0-55.021-29.524-76.493-17.446
				c-21.472,12.078-33.55,49.653-33.55,69.783c0,20.13,2.684,108.701,232.163,108.701c22.814,0,40.93-21.472,43.615-48.312
				C2111.95,2436.274,2091.149,2425.538,2091.149,2425.538z"/>
			<path style="fill:#FFFFFF;" d="M2779.14,2425.538l147.618-75.151c0,0,55.021-29.524,76.493-17.446
				c21.472,12.078,33.55,49.653,33.55,69.783c0,20.13-2.684,108.701-232.163,108.701c-22.814,0-40.93-21.472-43.615-48.312
				C2758.339,2436.274,2779.14,2425.538,2779.14,2425.538z"/>
		</g>
		<g>
			<path style="fill:#BFC8D6;" d="M3278.223,3015.906l-2670.38-22.762v67.349c0,18.28,11.647,33.823,27.421,36.594l755.104,132.622
				c8.961,1.574,18.049,1.991,27.091,1.245l1831.745-151.211c16.353-1.35,29.019-16.942,29.019-35.723V3015.906z"/>
			<g>
				<path style="fill:#BFC8D6;" d="M2309.152,2907.976L635.457,3031.183c-29.949,2.205-54.301-21.222-54.301-52.331V1732.498
					c0-31.109,24.352-56.328,54.301-56.328h1673.696c24.674,0,44.624,22.797,44.624,50.92v1126.68
					C2353.776,2881.892,2333.826,2906.159,2309.152,2907.976z"/>
				
					<linearGradient id="SVGID_00000069374418060759705020000010555535526989018036_" gradientUnits="userSpaceOnUse" x1="607.843" y1="2353.7485" x2="2380.4629" y2="2353.7485">
					<stop  offset="0" style="stop-color:#444B8C"/>
					<stop  offset="0.9964" style="stop-color:#26264F"/>
				</linearGradient>
				<path style="fill:url(#SVGID_00000069374418060759705020000010555535526989018036_);" d="M2335.84,2907.976L662.144,3031.183
					c-29.951,2.205-54.301-21.222-54.301-52.331V1732.498c0-31.109,24.351-56.328,54.301-56.328H2335.84
					c24.675,0,44.623,22.797,44.623,50.92v1126.68C2380.463,2881.892,2360.514,2906.159,2335.84,2907.976z"/>
				<path style="fill:#FFFFFF;" d="M2283.699,2828.542L724.826,2935.565c-24.372,1.673-44.178-17.555-44.178-42.952V1801.429
					c0-25.397,19.807-46.071,44.178-46.176l1558.872-6.72c20.354-0.088,36.819,18.593,36.819,41.725v993.874
					C2320.518,2807.263,2304.053,2827.146,2283.699,2828.542z"/>
			</g>
			
				<linearGradient id="SVGID_00000178891502783654321100000008284365022872788366_" gradientUnits="userSpaceOnUse" x1="607.843" y1="3035.3262" x2="3278.2229" y2="3035.3262">
				<stop  offset="0.494" style="stop-color:#EBEFF2"/>
				<stop  offset="1" style="stop-color:#FFFFFF"/>
			</linearGradient>
			<path style="fill:url(#SVGID_00000178891502783654321100000008284365022872788366_);" d="M2402.549,2901.142L607.843,3030.829
				l782.525,137.438c8.961,1.574,18.049,1.991,27.091,1.245l1860.764-153.607l-847.126-113.883
				C2421.624,2900.749,2412.068,2900.454,2402.549,2901.142z"/>
			<polygon style="fill:#D8DEE8;" points="869.718,3031.944 2363.864,2922.367 2826.289,2984.032 1345.015,3101.166 			"/>
			<g>
				<path style="fill:#D8DEE8;" d="M1353.82,2890.554l-635.933,42.791c-18.657,1.256-34.482-13.54-34.482-32.24V1787.338
					c0-17.795,14.388-32.241,32.182-32.313l638.233-2.577V2890.554z"/>
				<polygon style="fill:#D8DEE8;" points="2175.066,2318.548 1505.036,2342.092 1505.036,2274.344 2175.066,2253.344 				"/>
				<polygon style="fill:#D8DEE8;" points="2175.066,2425.369 1505.036,2453.081 1505.036,2385.333 2175.066,2360.165 				"/>
				<polygon style="fill:#FFFFFF;" points="1277.726,2328.968 892.987,2342.083 892.987,2291.448 1277.726,2279.389 				"/>
				<polygon style="fill:#FFFFFF;" points="1277.726,2410.19 892.987,2425.035 892.987,2374.4 1277.726,2360.612 				"/>
				<polygon style="fill:#FFFFFF;" points="1277.726,2491.413 892.987,2507.988 892.987,2457.353 1277.726,2441.834 				"/>
				<polygon style="fill:#FFFFFF;" points="1277.726,2572.635 892.987,2590.941 892.987,2540.306 1277.726,2523.056 				"/>
				
					<linearGradient id="SVGID_00000110450083316840126210000014381512806888906395_" gradientUnits="userSpaceOnUse" x1="1853.3259" y1="2835.0613" x2="1853.3259" y2="2449.9927">
					<stop  offset="0" style="stop-color:#FFC444"/>
					<stop  offset="0.9964" style="stop-color:#F36F56"/>
				</linearGradient>
				<path style="fill:url(#SVGID_00000110450083316840126210000014381512806888906395_);" d="M2088.965,2680.179l-466.606,25.792
					c-24.256,1.341-44.661-17.967-44.661-42.26v-61.584c0-22.54,17.664-41.125,40.175-42.27l466.606-23.734
					c24.188-1.23,44.475,18.051,44.475,42.271v59.525C2128.954,2660.387,2111.399,2678.939,2088.965,2680.179z"/>
				<g>
					<path style="fill:#D8DEE8;" d="M2105.409,2004.546c-18.628-15.81-91.486-30.76-91.486-30.76l-56.653,62.482l-188.909,2.999
						c-66.38-19.473-119.548-35.19-185.928-54.663c-1.97-0.521-7.501-1.658-11.454,0.918c-3.203,2.088-4.081,4.046-3.915,8.902
						l4.8,147.676c0.167,4.902,4.164,8.776,8.837,8.564l29.985-1.362c0,0-0.242-73.421,67.547-74.497
						c67.789-1.076,66.613,70.473,66.613,70.473l204.725-3.25c0,0-3.791-71.47,65.807-72.574
						c69.596-1.105,73.922,72.725,73.922,72.725l22.635-0.359c6.926-8.978,23.776-33.416,23.883-67.645
						c0.029-9.335-0.14-28.247-11.317-47.462C2122.739,2023.683,2116.946,2014.338,2105.409,2004.546z"/>
					<path style="fill:#D8DEE8;" d="M1605.566,1966.475c0,0,128.999-69.732,220.322-70.234l3.943,115.677l-57.992,0.92
						L1605.566,1966.475z"/>
					<path style="fill:#D8DEE8;" d="M1860.234,1895.695c0,0,65.832-5.466,129.813,67.417l-46.736,47.004l-80.037,1.27
						C1863.274,2011.386,1859.298,1894.763,1860.234,1895.695z"/>
					
						<ellipse transform="matrix(0.978 -0.2084 0.2084 0.978 -410.7698 397.4814)" style="fill:#D8DEE8;" cx="1680.544" cy="2147.719" rx="44.517" ry="46.817"/>
					
						<ellipse transform="matrix(0.978 -0.2084 0.2084 0.978 -402.236 467.6637)" style="fill:#D8DEE8;" cx="2017.857" cy="2142.365" rx="44.517" ry="46.817"/>
				</g>
				<g>
					<path style="fill:#FFFFFF;" d="M1755.732,2632.591c4.931-2.563,8.753-5.94,11.432-10.114c2.662-4.174,3.992-8.831,3.973-14.004
						c-0.032-8.861-2.768-15.323-8.207-19.42c-5.456-4.096-14.117-5.878-25.514-5.327l-24.835,1.156l0.326,88.732l15.084-0.918
						l3.912-0.221l-0.125-33.96l9.196-0.508l19.945,32.655l19.478-1.191C1776.612,2663.932,1768.343,2651.652,1755.732,2632.591z
						 M1749.344,2619.357c-2.669,2.125-6.526,3.318-12.156,3.616l-5.466,0.293l-0.088-23.903l5.12-0.247
						c5.734-0.285,9.843,0.392,12.578,2.021c2.735,1.646,4.022,4.556,4.037,8.722
						C1753.386,2614.094,1751.996,2617.25,1749.344,2619.357z"/>
					<path style="fill:#FFFFFF;" d="M1843.89,2593.814l-0.055-15.076l-48.357,2.248l0.322,87.503l48.354-2.931l-0.056-15.213
						l-31.085,1.8l-0.083-22.486l27.631-1.526l-0.056-15.093l-27.632,1.458l-0.07-19.157L1843.89,2593.814z"/>
					<path style="fill:#FFFFFF;" d="M1921.55,2575.092l0.149,40.55c0.017,4.61,0.011,12.294,0.59,24.227l-0.38,0.013l-34.458-62.868
						l-21.166,0.669l0.318,86.478l13.815-0.891l-0.149-40.584c-0.018-4.917,0.45-13.813-0.278-24.033l0.501-0.017l35.26,62.806
						l21.655-1.625l-0.314-85.454L1921.55,2575.092z"/>
					<path style="fill:#FFFFFF;" d="M1954.364,2573.556l0.055,15.025l20.724-1.029l0.257,69.9l15.542-0.985l-0.256-69.695
						l20.724-1.029l-0.055-14.871L1954.364,2573.556z"/>
				</g>
				<path style="fill:#FFFFFF;" d="M1255.502,2053.975l-22.681-14.144c-1.427-0.887-3.089-1.398-4.789-1.408l-161.819-0.925
					l0.088-15.124c0.039-6.85-5.077-12.672-11.858-13.624l-82.064-11.529c-6.715-0.942-13.476,1.54-17.973,6.613l-39.152,44.154
					c-6.908,7.79-7.324,19.387-0.983,27.646l37.332,48.637c4.922,6.41,12.991,9.56,20.955,8.177l81.85-14.193
					c6.527-1.134,11.385-6.777,11.422-13.401l0.071-12.428l18.786,0.108c1.345,0.008,2.615-0.886,3.413-1.928l10.504-13.867
					c0.34-0.444,0.885-0.77,1.459-0.751c0.571,0.018,1.099,0.271,1.408,0.735l9.061,13.853c0.769,1.154,2.093,2.119,3.516,2.127
					l21.551,0.124c1.419,0.008,2.75-0.956,3.534-2.095l8.573-12.607c0.353-0.514,0.974-0.871,1.613-0.813
					c0.641,0.057,1.194,0.414,1.443,0.983l5.092,11.924c0.653,1.495,2.169,2.736,3.854,2.745l15.829,0.091
					c1.812,0.01,3.429-1.377,4.01-3.027l4.469-12.802c0.22-0.625,0.804-1.136,1.487-1.198c0.684-0.062,1.342,0.234,1.678,0.809
					l8.069,14.026c0.742,1.265,2.13,2.315,3.639,2.324l16.632,0.095c3.159,0.018,6.208-1.413,8.511-3.493l32.087-29.114
					c0.976-0.88,1.475-2.214,1.354-3.495C1257.352,2055.901,1256.625,2054.673,1255.502,2053.975z M958.761,2101.887
					c0.014,0.742-0.449,1.407-1.149,1.654c-0.702,0.246-1.479,0.014-1.932-0.573l-25.673-33.328
					c-3.104-4.03-3.054-9.661,0.122-13.635l24.202-30.275c0.451-0.566,1.21-0.787,1.896-0.554c0.686,0.233,1.152,0.872,1.166,1.597
					L958.761,2101.887z"/>
			</g>
			<path style="opacity:0.48;fill:#FFFFFF;" d="M662.138,3031.183l1665.228-122.584l8.474-0.624
				c11.321-0.833,21.615-6.429,29.478-14.919c-119.832-6.558-194.261-49.083-242.274-93.023
				c-96.419-88.242-79.695-175.262-183.672-233.279c-129.687-72.365-231.66,19.33-330.072-71.141
				c-59.662-54.85-30.371-95.752-103.786-177.719c-81.312-90.785-134.25-60.268-215.968-141.975
				c-103.324-103.313-51.648-183.693-140.65-257.868c-107.972-89.986-224.415-6.699-327.196-92.998
				c-44.331-37.221-68.656-91.334-81.356-148.883h-78.2c-29.95,0-54.302,25.219-54.302,56.328v1246.354
				C607.843,3009.958,632.19,3033.383,662.138,3031.183z"/>
		</g>
		<g>
			<g>
				
					<linearGradient id="SVGID_00000061442505264861694130000001319513053829672606_" gradientUnits="userSpaceOnUse" x1="-3694.0383" y1="-768.9728" x2="-3274.1113" y2="-333.1999" gradientTransform="matrix(0.6508 -0.7592 0.7592 0.6508 3488.3733 -1145.7214)">
					<stop  offset="0" style="stop-color:#444B8C"/>
					<stop  offset="0.9964" style="stop-color:#26264F"/>
				</linearGradient>
				<path style="fill:url(#SVGID_00000061442505264861694130000001319513053829672606_);" d="M729.404,910.31
					c-78.04-16.74-174.602,37.66-220.111,104.899c-82.745,122.256-28.267,333.602,112.075,386.031
					c90.536,33.824,208.057-1.761,259.545-72.18c46.832-64.055,12.739-120.974,71.095-178.983
					c48.883-48.591,90.015-30.271,130.937-83.185c30.13-38.96,52.096-106.976,21.537-154.493
					c-25.758-40.05-81.084-53.49-121.937-49.678c-74.246,6.928-90.685,69.9-164.758,71.67
					C777.29,935.36,770.863,919.203,729.404,910.31z"/>
				
					<linearGradient id="SVGID_00000023977493094321795940000013705137308880458397_" gradientUnits="userSpaceOnUse" x1="1099.4049" y1="834.5588" x2="1269.214" y2="1394.5659">
					<stop  offset="0" style="stop-color:#FFC444"/>
					<stop  offset="0.0564" style="stop-color:#FDB647"/>
					<stop  offset="0.1813" style="stop-color:#F99C4C"/>
					<stop  offset="0.3198" style="stop-color:#F78851"/>
					<stop  offset="0.4772" style="stop-color:#F57A54"/>
					<stop  offset="0.6695" style="stop-color:#F37155"/>
					<stop  offset="0.9964" style="stop-color:#F36F56"/>
				</linearGradient>
				<path style="fill:url(#SVGID_00000023977493094321795940000013705137308880458397_);" d="M1053.851,1047.343
					c22.735-17.248,94.337,26.449,139.568,79.933c53.138,62.836,44.426,109.091,88.873,185.199
					c22.094,37.836,61.162,89.617,134.265,138.497c-6.678,13.127-13.355,26.258-20.031,39.383
					c-37.384-1.129-110.261-9.056-174.329-59.73c-44.504-35.202-65.135-78.373-104.579-163.278
					C1078.034,1182.135,1025.432,1068.905,1053.851,1047.343z"/>
				
					<linearGradient id="SVGID_00000139990977868177873340000005866830913651421854_" gradientUnits="userSpaceOnUse" x1="1534.8206" y1="1794.1981" x2="1494.1753" y2="2162.7183">
					<stop  offset="0" style="stop-color:#444B8C"/>
					<stop  offset="0.9964" style="stop-color:#26264F"/>
				</linearGradient>
				<path style="fill:url(#SVGID_00000139990977868177873340000005866830913651421854_);" d="M1530.875,2216.407l-25.035-53.191
					c-3.556-7.556-9.101-14.003-16.042-18.648l-12.395-8.297c0,0-29.633-0.786-34.244,17.84
					c-0.992,23.653,44.974,76.504,74.044,97.491c4.827,3.483,11.708,8.127,15.89,5.737
					C1540.17,2253.292,1535.203,2231.535,1530.875,2216.407z"/>
				
					<linearGradient id="SVGID_00000121958604366614975160000008667789977972613560_" gradientUnits="userSpaceOnUse" x1="1644.0564" y1="1888.1042" x2="1463.8602" y2="2192.9475">
					<stop  offset="0" style="stop-color:#311944"/>
					<stop  offset="1" style="stop-color:#A03976"/>
				</linearGradient>
				<path style="fill:url(#SVGID_00000121958604366614975160000008667789977972613560_);" d="M1483.829,2107.351
					c-3.943,22.814,1.044,34.709,6.42,41.372c3.783,4.689,34.486,55.313,21.875,63.487c-5.691,3.688-44.696-44.747-48.479-52.168
					c-3.425-6.72-5.654-5.135-5.853-23.446c-0.131-12.056-2.582-21.758-4.51-27.829
					C1463.466,2108.294,1473.646,2107.824,1483.829,2107.351z"/>
				
					<linearGradient id="SVGID_00000159469084257344543650000009053295222394393255_" gradientUnits="userSpaceOnUse" x1="1532.1007" y1="1793.8982" x2="1491.4553" y2="2162.4187">
					<stop  offset="0" style="stop-color:#444B8C"/>
					<stop  offset="0.9964" style="stop-color:#26264F"/>
				</linearGradient>
				<path style="fill:url(#SVGID_00000159469084257344543650000009053295222394393255_);" d="M1528.165,1926.539
					c0,0,27.71,33.063,23.201,69.31c-4.509,36.244-53.037-16.747-59.801-34.656c-6.767-17.908-14.671-43.424-14.671-43.424
					S1510.923,1896.599,1528.165,1926.539z"/>
				
					<linearGradient id="SVGID_00000066505079936197820130000013363285158357603004_" gradientUnits="userSpaceOnUse" x1="1516.2322" y1="1925.2245" x2="1574.4911" y2="2076.9688">
					<stop  offset="0" style="stop-color:#311944"/>
					<stop  offset="1" style="stop-color:#A03976"/>
				</linearGradient>
				<path style="fill:url(#SVGID_00000066505079936197820130000013363285158357603004_);" d="M1517.595,1874.806
					c0,0-7.517,38.52,6.82,58.849c7.141,10.125,16.772,18.714,13.94,26.957c-1.898,5.523-9.106,9.492-15.211,8.865
					c-11.689-1.201-18.169-19.12-22.739-31.76c-6.75-18.668-10.512-58.616-10.512-58.616L1517.595,1874.806z"/>
				
					<linearGradient id="SVGID_00000139277329433713302720000015648403739841912734_" gradientUnits="userSpaceOnUse" x1="-7109.4629" y1="15244.9053" x2="-6630.377" y2="14755.584" gradientTransform="matrix(-1 0 0 1 7587.4121 0)">
					<stop  offset="0" style="stop-color:#311944"/>
					<stop  offset="1" style="stop-color:#A03976"/>
				</linearGradient>
				<path style="fill:url(#SVGID_00000139277329433713302720000015648403739841912734_);" d="M1495.51,1907.277
					c8.523-3.103,17.043-6.208,25.565-9.312c13.294-30.365,29.519-80.238,24.099-140.858
					c-13.938-155.895-158.123-238.505-174.14-247.347c-39.285,19.711-79.075,47.517-80.517,82.57
					c-1.808,44.004,58.137,67.264,114.488,131.608C1438.831,1762.56,1474.973,1820.109,1495.51,1907.277z"/>
				
					<linearGradient id="SVGID_00000159462711458851553230000017203044639505555378_" gradientUnits="userSpaceOnUse" x1="6271.8823" y1="2172.0959" x2="6401.707" y2="1761.222" gradientTransform="matrix(-1 0 0 1 7587.4121 0)">
					<stop  offset="0" style="stop-color:#311944"/>
					<stop  offset="1" style="stop-color:#A03976"/>
				</linearGradient>
				<path style="fill:url(#SVGID_00000159462711458851553230000017203044639505555378_);" d="M1486.324,2125.182
					c28.156-109.988,20.963-199.741,12.841-251.446c-12.277-78.149-37.247-237.111-143.379-296.386
					c-23.176-12.944-56.307-24.535-96.689-60.522c-33.722-30.052-55.155-61.658-68.088-83.925
					c-141.938-41.637-272.856-24.764-330.626,51.359c-6.675,8.796-23.387,27.875-26.619,56.008
					c-7.295,63.475,55.074,139.892,125.057,155.85c88.944,20.282,140.544-71.046,219.346-40.66
					c22.043,8.5,40.732,29.563,78.109,71.688c47.549,53.589,74.278,103.039,84.391,122.825
					c30.111,58.92,52.946,102.415,56.276,158.784c0.775,13.131,1.239,39.662,16.62,68.276
					c11.807,21.965,27.811,36.609,39.717,45.657C1464.298,2123.521,1475.311,2124.353,1486.324,2125.182z"/>
				
					<linearGradient id="SVGID_00000057120359259131656010000000028983217738190513_" gradientUnits="userSpaceOnUse" x1="6271.8936" y1="2172.1006" x2="6401.7183" y2="1761.2264" gradientTransform="matrix(-1 0 0 1 7587.4121 0)">
					<stop  offset="0" style="stop-color:#AA80F9"/>
					<stop  offset="0.9964" style="stop-color:#6165D7"/>
				</linearGradient>
				<path style="opacity:0.3;fill:url(#SVGID_00000057120359259131656010000000028983217738190513_);" d="M833.765,1540.269
					c3.232-28.133,19.944-47.211,26.619-56.008c57.77-76.123,188.688-92.997,330.626-51.359
					c12.932,22.267,34.366,53.874,68.087,83.925c40.382,35.987,73.513,47.578,96.689,60.522
					c64.808,36.196,99.323,109.554,119.195,178.993c-29.484-45.714-54.722-57.868-74.254-58.085
					c-27.957-0.31-40.449,23.592-73.83,20.329c-35.679-3.486-43.837-32.989-72.759-36.378c-8.657-1.014-19.308,0.321-32.101,7.131
					c-17.073-17.876-29.797-28.457-43.868-33.881c-78.802-30.386-130.403,60.942-219.346,40.66
					C888.839,1680.161,826.47,1603.744,833.765,1540.269z"/>
				
					<linearGradient id="SVGID_00000135688869017939902690000004463805992782417044_" gradientUnits="userSpaceOnUse" x1="-6993.5498" y1="15358.418" x2="-6514.4624" y2="14869.0947" gradientTransform="matrix(-1 0 0 1 7587.4121 0)">
					<stop  offset="0" style="stop-color:#311944"/>
					<stop  offset="1" style="stop-color:#A03976"/>
				</linearGradient>
				<path style="fill:url(#SVGID_00000135688869017939902690000004463805992782417044_);" d="M1412.783,1626.544
					c-16.065-0.853-40.805-1.347-70.646,1.601c-141.624,13.996-180.666,84.05-297.715,101.143
					c-27.688,4.045-150.971,22.05-204.367-49.219c-38.334-51.167-32.534-139.331,9.396-174.008
					c17.745-14.676,35.315-14.268,148.962-13.24c42.799,0.388,85.601,0.525,128.398,1.071
					c181.168,2.309,215.813-10.238,248.777,19.727C1390.965,1527.598,1413.451,1557.623,1412.783,1626.544z"/>
				<g>
					<g>
						
							<linearGradient id="SVGID_00000126295647652345472570000009664333402285824153_" gradientUnits="userSpaceOnUse" x1="2380.8652" y1="1560.925" x2="1933.2312" y2="994.5998" gradientTransform="matrix(-1 0 0 1 3173.0376 0)">
							<stop  offset="0" style="stop-color:#FFC444"/>
							<stop  offset="0.9964" style="stop-color:#F36F56"/>
						</linearGradient>
						<path style="fill:url(#SVGID_00000126295647652345472570000009664333402285824153_);" d="M1030.32,1045.271
							c0,0-143.001-41.703-205.98,29.59c-11.563,13.089-20.705,30.302-27.357,63.526c-33.9,169.313,94.32,271.007,43.804,360.329
							c-20.06,35.47-55.393,46.157-80.5,109.904c-4.251,10.791-19.626,49.826-5.518,62.125c12.426,10.833,32.858-12.036,69.156-7.62
							c38.438,4.677,47.419,34.205,73.28,29.906c16.862-2.804,24.131-17.2,48.972-53.092c35.963-51.962,53.944-77.942,66.834-87.052
							c50.858-35.943,90.166,10.93,148.163-24.66c20.997-12.887,98.792-113.05,75.905-85.535l0,0
							c-54.477-67.962-67.137-124.032-68.438-163.019c-1.428-42.74,10.892-62.166,0-112.691c0,0-12.154-56.374-56.001-104.783
							C1106.345,1055.25,1098.842,1048.013,1030.32,1045.271z"/>
					</g>
				</g>
				<g>
					
						<linearGradient id="SVGID_00000146481770999971182550000015484910141962007967_" gradientUnits="userSpaceOnUse" x1="978.1833" y1="887.7921" x2="1024.3894" y2="1132.8842">
						<stop  offset="0" style="stop-color:#311944"/>
						<stop  offset="1" style="stop-color:#A03976"/>
					</linearGradient>
					<path style="fill:url(#SVGID_00000146481770999971182550000015484910141962007967_);" d="M984.406,952.517
						c1.936,9.048,11.796,57.6-8.07,70.091c-4.305,2.71-12.578,4.26-29.128,7.362c-10.834,2.031-19.924,3.275-26.336,4.042
						c29.002,39.19,73.99,59.442,115.865,51.358c29.465-5.689,48.814-23.751,57.356-32.969
						c-8.547-6.625-21.142-14.825-37.785-20.874c-10.893-3.96-20.858-6.031-29.066-7.127c-1.46-9.378-2.924-18.757-4.384-28.137
						C1010.039,981.68,997.224,967.099,984.406,952.517z"/>
					
						<linearGradient id="SVGID_00000066513784110251671650000004723807952008219777_" gradientUnits="userSpaceOnUse" x1="2281.4973" y1="743.9581" x2="2111.9387" y2="1022.0339" gradientTransform="matrix(-1 0 0 1 3173.0376 0)">
						<stop  offset="0" style="stop-color:#311944"/>
						<stop  offset="1" style="stop-color:#A03976"/>
					</linearGradient>
					<path style="fill:url(#SVGID_00000066513784110251671650000004723807952008219777_);" d="M983.476,976.714
						c0,0,3.59,35.58,38.176,41.85c30.968,5.614,54.28-69.22,38.431-88.576c-5.286-6.456-18.337-12.599-29.652-12.274
						c-7.957,0.231-34.834,10.466-38.585,37.358c-5.353-5.639-12.022-7.259-15.311-4.898c-4.172,2.996-1.938,11.705-1.429,13.679
						C976.862,970.689,981.326,974.927,983.476,976.714z"/>
				</g>
				
					<linearGradient id="SVGID_00000031910058094202704340000007846766319944717754_" gradientUnits="userSpaceOnUse" x1="1931.7871" y1="1476.2842" x2="2424.1018" y2="1476.2842" gradientTransform="matrix(-1 0 0 1 3173.0376 0)">
					<stop  offset="0" style="stop-color:#FFC444"/>
					<stop  offset="0.9964" style="stop-color:#F36F56"/>
				</linearGradient>
				<path style="opacity:0.3;fill:url(#SVGID_00000031910058094202704340000007846766319944717754_);" d="M1237.08,1442.691
					c-6.554-8.177-12.473-16.173-17.87-23.997c-30.044-10.067-56.038-13.813-77.006-14.831
					c-47.297-2.294-73.196,8.834-105.39-10.539c-36.544-21.991-30.076-52.518-65.342-69.558
					c-37.117-17.933-63.36,2.333-99.067-4.214c-21.564-3.954-47.831-18.375-74.635-60.441
					c20.526,101.282,80.224,173.819,43.018,239.604c-20.06,35.47-55.393,46.157-80.5,109.904
					c-4.251,10.791-19.626,49.826-5.518,62.125c12.426,10.833,32.858-12.036,69.156-7.62c38.438,4.677,47.42,34.205,73.28,29.906
					c16.862-2.804,24.131-17.2,48.972-53.092c35.963-51.962,53.944-77.942,66.834-87.052c50.858-35.943,90.167,10.93,148.163-24.66
					C1182.171,1515.339,1259.967,1415.177,1237.08,1442.691z"/>
			</g>
			<g>
				
					<linearGradient id="SVGID_00000112625993701699990420000010736097128227760016_" gradientUnits="userSpaceOnUse" x1="7808.5737" y1="1486.3539" x2="8162.2334" y2="1486.3539" gradientTransform="matrix(-1 0 0 1 9097.4053 0)">
					<stop  offset="0" style="stop-color:#40447E"/>
					<stop  offset="0.9964" style="stop-color:#3C3B6B"/>
				</linearGradient>
				<path style="fill:url(#SVGID_00000112625993701699990420000010736097128227760016_);" d="M1280.17,1460.069l-323.565,15.745
					c-4.453,0.217-8.516,2.603-10.872,6.387l-8.953,14.371c-4.456,7.153,0.898,16.378,9.321,16.058l342.732-13.057L1280.17,1460.069
					z"/>
				
					<linearGradient id="SVGID_00000146459475209479837580000001415566123297614984_" gradientUnits="userSpaceOnUse" x1="7582.4082" y1="1263.2635" x2="7814.2773" y2="1493.2776" gradientTransform="matrix(-1 0 0 1 9097.4053 0)">
					<stop  offset="0" style="stop-color:#40447E"/>
					<stop  offset="0.9964" style="stop-color:#3C3B6B"/>
				</linearGradient>
				<path style="fill:url(#SVGID_00000146459475209479837580000001415566123297614984_);" d="M1616.704,1279.886l-334.278,6.478
					c-9.891,0.191-18.948,5.58-23.835,14.179l-115.757,203.662l353.038-14.065c9.69-0.387,18.532-5.634,23.513-13.955
					l107.248-179.173C1631.199,1289.387,1625.592,1279.714,1616.704,1279.886z"/>
				
					<linearGradient id="SVGID_00000087414693076131651520000012591395158494497970_" gradientUnits="userSpaceOnUse" x1="7582.4087" y1="1263.2635" x2="7814.2778" y2="1493.2778" gradientTransform="matrix(-1 0 0 1 9097.4053 0)">
					<stop  offset="0" style="stop-color:#40447E"/>
					<stop  offset="0.9964" style="stop-color:#3C3B6B"/>
				</linearGradient>
				<path style="opacity:0.3;fill:url(#SVGID_00000087414693076131651520000012591395158494497970_);" d="M1258.589,1300.545
					c4.888-8.601,13.945-13.989,23.836-14.18l7.326-0.141c1.092,10.79,4.403,20.661,11.007,28.63
					c20.611,24.88,54.857,9.534,80.382,35.864c28.038,28.923,2.136,63.355,27.205,90.274c26.387,28.333,69.055,5.265,118.103,23.396
					l-7.063,11.799c-4.98,8.322-13.822,13.568-23.512,13.955l-353.038,14.065L1258.589,1300.545z"/>
			</g>
			<g>
				
					<linearGradient id="SVGID_00000178203368627546132020000017281730706853845133_" gradientUnits="userSpaceOnUse" x1="2465.2954" y1="1495.0209" x2="2001.9634" y2="908.835" gradientTransform="matrix(-1 0 0 1 3173.0376 0)">
					<stop  offset="0" style="stop-color:#FFC444"/>
					<stop  offset="0.9964" style="stop-color:#F36F56"/>
				</linearGradient>
				<path style="fill:url(#SVGID_00000178203368627546132020000017281730706853845133_);" d="M982.972,1449.257
					c4.211-11.122,8.423-22.241,12.634-33.365c-46.546-12.763-110.92-31.616-176.948-55.21
					c-10.341-3.696-22.627-8.273-26.651-19.155c-11.29-30.524,60.486-62.155,88.389-128.806
					c25.807-61.643,27.321-153.94-2.629-164.047c-62.322-21.029-299.041,260.817-220.108,376.782
					C702.277,1491.011,839.834,1501.449,982.972,1449.257z"/>
			</g>
			
				<linearGradient id="SVGID_00000112601177513953976940000001967985278457844624_" gradientUnits="userSpaceOnUse" x1="-6289.7734" y1="1416.6161" x2="-6407.3364" y2="1527.4044" gradientTransform="matrix(1 0 0 1 7357.1265 0)">
				<stop  offset="0" style="stop-color:#311944"/>
				<stop  offset="1" style="stop-color:#A03976"/>
			</linearGradient>
			<path style="fill:url(#SVGID_00000112601177513953976940000001967985278457844624_);" d="M995.606,1415.893
				c29.221-15.522,64.199,0.389,66.453,1.454c6.421,3.031,15.765,8.43,25.207,18.074c1.068,1.456,13.743,19.02,9.126,24.648
				c-3.702,4.509-18.036,0.771-35.263-9.943c-7.222-1.013-17.972-1.943-30.85-0.756c-23.65,2.182-34.484,9.653-43.07,3.204
				c-6.287-4.721-8.429-14.703-6.166-22.125C983.471,1422.475,990.66,1418.521,995.606,1415.893z"/>
		</g>
		<g>
			<g>
				
					<linearGradient id="SVGID_00000141432740929182143530000000849772143701644178_" gradientUnits="userSpaceOnUse" x1="-5000.7563" y1="1897.7175" x2="-5245.4224" y2="3791.8931" gradientTransform="matrix(0.996 -0.0892 0.0892 0.996 5593.2568 18.7124)">
					<stop  offset="0" style="stop-color:#FFC444"/>
					<stop  offset="0.9964" style="stop-color:#F36F56"/>
				</linearGradient>
				<path style="fill:url(#SVGID_00000141432740929182143530000000849772143701644178_);" d="M712.441,3159.887
					c-31.224,0.317-71.661-4.746-111.962-26.227c-43.603-23.24-102.209-73.779-91.329-109.905
					c4.062-13.488,18.116-25.984,31.442-26.107c19.688-0.181,24.395,26.767,60.984,53.26c6.762,4.896,41.722,30.21,56.994,19.258
					c7.592-5.445,8.79-18.757,6.59-28.599c-6.43-28.777-42.384-30.065-79.387-58.527c-37.515-28.857-71.394-82.022-58.258-121.194
					c7.549-22.511,31.115-41.865,48.044-38.534c7.235,1.423,12.221,6.786,37.771,51.117c20.97,36.385,25.869,47.101,37.52,49.686
					c11.992,2.66,29.704-3.612,35.566-15.717c15.265-31.526-66.249-68.754-80.791-151.853c-6.517-37.239-1.346-93.76,31.565-108.724
					c22.249-10.115,56.076-0.739,69.794,19.275c12.366,18.042,0.691,33.496,12.649,75.444c3.629,12.729,11.096,38.924,21.943,39.362
					c12.735,0.514,23.775-34.727,26.289-43.294c18.926-64.497-12.043-94.018,8.355-126.332
					c15.906-25.197,54.264-38.181,86.389-29.051c28.111,7.99,52.281,33.149,56.249,61.111c4.038,28.45-17.454,59.056-60.436,120.268
					c-20.383,29.028-36.891,48.885-33.457,75.616c1.674,13.031,8.506,30.958,18.022,31.8c21.003,1.857,23.723-82.29,71.561-99.532
					c24.486-8.825,56.805,1.315,72.522,22.692c19.257,26.192,11.533,66.451-7.696,88.979
					c-25.088,29.393-55.122,11.453-104.275,45.014c-21.805,14.888-55.435,45.416-48.131,67.517
					c3.18,9.623,14.343,18.325,25.765,18.596c25.6,0.607,30.25-41.675,69.358-63.58c28.176-15.782,68.892-17.995,80.016-2.304
					c15.705,22.151-27.887,79.539-51.49,105.286C922.085,3085.811,853.621,3146.119,712.441,3159.887z"/>
				<g style="opacity:0.5;">
					<path style="fill:#FFFFFF;" d="M723.627,3145.558c-10.356-69.348,23.049-215.35,50.596-285.396
						c26.842-68.254,48.878-174.481,49.097-175.546l5.153,1.062c-0.22,1.069-22.345,107.732-49.354,176.409
						c-27.337,69.512-60.517,214.196-50.288,282.694L723.627,3145.558z"/>
				</g>
			</g>
			
				<linearGradient id="SVGID_00000003103108868925017920000017805564165477238198_" gradientUnits="userSpaceOnUse" x1="959.8893" y1="3189.0366" x2="480.3842" y2="2622.0305">
				<stop  offset="0.0036" style="stop-color:#E38DDD"/>
				<stop  offset="1" style="stop-color:#9571F6"/>
			</linearGradient>
			<path style="fill:url(#SVGID_00000003103108868925017920000017805564165477238198_);" d="M695.103,3144.059
				c-12.846-37.992-28.464-104.217-11.281-181.118c7.08-31.687,20.908-93.577,73.898-134.344
				c26.411-20.319,77.296-46.736,100.292-27.538c14.797,12.353,17.006,42.723,5.872,61.88
				c-11.227,19.316-29.399,15.84-59.393,45.256c-11.099,10.885-23.904,23.731-20.348,34.304c2.969,8.83,16.831,14.531,28.861,13.479
				c24.849-2.172,26.398-31.802,56.348-44.192c21.297-8.811,51.637-6.705,60.324,8.542c7.543,13.238-1.469,35.979-15.618,48.636
				c-22.657,20.267-47.33,4.696-73.237,26.504c-11.493,9.675-22.629,26.2-18.03,35.5c5.24,10.597,30.271,10.518,47.704,5.94
				c23.016-6.043,27.649-18.576,40.873-16.261c14.75,2.581,28.349,21.563,26.528,37.379c-2.551,22.152-35.208,36.853-58.586,40.416
				c-29.928,4.561-47.027-8.769-65.035,4.495c-6.609,4.868-14.051,13.841-12.138,21.262c2.729,10.587,23.388,13.717,37.105,15.796
				c33.384,5.059,45.732-3.817,55.442,5.323c9.831,9.254,9.893,30.325,0.739,42.28c-5.088,6.644-17.019,15.689-60.69,10.229
				C804.164,3194.003,754.337,3182.611,695.103,3144.059z"/>
		</g>
	</g>
</g>
</svg>
