<svg id="Layer_16" viewBox="0 0 512 512" xmlns="http://www.w3.org/2000/svg" xmlns:xlink="http://www.w3.org/1999/xlink" data-name="Layer 16"><linearGradient id="linear-gradient" gradientUnits="userSpaceOnUse" x1="0" x2="512" y1="256" y2="256"><stop offset="0" stop-color="#ed6c14"/><stop offset=".6" stop-color="#ff9045"/><stop offset="1" stop-color="#ffb54a"/></linearGradient><path d="m356.99 281.93c-4.5 4.52-9.83 6.48-15.92 6.09-6.15-.46-11.91-3.34-17.38-8.79-5.13-5.11-7.82-10.78-8.13-16.94-.38-6.23 1.68-11.52 6.04-15.89 4.29-4.3 9.59-6.23 15.73-5.92 6.15.44 11.73 3.2 16.76 8.28 5.23 5.28 8.09 11.06 8.6 17.3.51 6.25-1.38 11.53-5.7 15.86zm-201.6 6.33c-.44-6.27-3.21-12.04-8.3-17.34-4.89-5.09-10.32-7.88-16.29-8.32-5.97-.45-11.02 1.56-15.25 5.98s-6.27 9.79-5.99 16.11c.21 6.25 2.7 11.99 7.57 17.13 5.19 5.48 10.72 8.34 16.72 8.74 5.94.33 11.21-1.71 15.71-6.29 4.32-4.4 6.27-9.73 5.83-15.99zm132.06-282.34c19.71-1.71 45.92-3.34 80.19-4.64 38.4-1.47 65.94-1.58 85.7-.79 33.09 1.14 57.04 25.08 58.17 58.17.79 19.76.68 47.3-.79 85.7-1.3 34.27-2.93 60.48-4.64 80.19 0 0-3.38 33.47-18.24 51.98-14.01 18.76-74.58 83.87-105.68 113.42-30.37 30.28-97.47 89.02-116.72 102.75-31.32 22.91-80.96 26.26-114.04 5.52-19.82-12.71-45.53-31.4-75.94-61.69-30.29-30.4-48.98-56.12-61.69-75.94-20.73-33.09-17.38-82.72 5.52-114.04 13.73-19.25 72.47-86.35 102.75-116.72 29.55-31.1 94.66-91.67 113.42-105.68 18.94-15.09 51.98-18.24 51.98-18.24zm-111.61 325.46c11.92-11.92 17.77-26.28 17.53-43.2-.23-16.92-6.67-31.85-19.28-44.82-12.21-12.57-26.7-19.17-43.34-19.72-16.58-.61-30.24 4.89-41.26 16.62-10.96 11.65-16.26 26.39-16.23 43.94.05 17.54 5.76 32.61 17.45 45.13 11.82 12.66 26.01 19.01 42.56 19.26 16.55.24 30.78-5.53 42.57-17.2zm102.57 51.35c-17.44-75.33-33.38-155.02-50.45-232.76-3.34-15.49-22.68-22.22-33.13-11.78 0 0-6.87 6.39-4.78 16.95 17.09 78.02 32.84 157.76 49.88 232.91 2.32 10.24 12.85 17.22 23.52 15.75 10.67-1.48 17.36-10.82 14.96-21.07zm122.17-116.36c-.39-16.99-6.76-32.04-19.44-45.01-12.27-12.56-26.96-19.03-44.15-19.44-17.13-.46-31.57 5.21-43.11 16.75s-17.08 25.98-16.74 43.14 6.83 31.9 19.43 44.31c12.74 12.55 27.69 19.06 44.61 19.61 16.92.54 31.12-4.82 42.59-16.34 11.65-11.7 17.19-26.04 16.81-43.03zm41.06-198.96c-12.01-10.59-30.35-10.59-42.37 0-14.57 12.84-14.57 35.43 0 48.26 12.01 10.59 30.35 10.59 42.36 0 14.57-12.84 14.57-35.43 0-48.26z" fill="url(#linear-gradient)"/></svg>