<svg xmlns="http://www.w3.org/2000/svg" version="1.1" xmlns:xlink="http://www.w3.org/1999/xlink" width="512" height="512" x="0" y="0" viewBox="0 0 24 24" style="enable-background:new 0 0 512 512" xml:space="preserve" fill-rule="evenodd" class=""><g transform="matrix(1,0,0,1,0,0)"><path d="M1.305 3.542A1.844 1.844 0 0 1 3.92 1.445l17.81 8.905a1.844 1.844 0 0 1 0 3.3L3.92 22.555a1.844 1.844 0 0 1-2.615-2.097L3.42 12 1.305 3.542zm1.455-.363 2.16 8.639c.03.12.03.244 0 .364l-2.16 8.639a.347.347 0 0 0 .489.393l17.81-8.906a.343.343 0 0 0 0-.616L3.249 2.786a.346.346 0 0 0-.489.393z" fill="#153b4f" opacity="1" data-original="#000000" class=""></path><path d="M4.369 12.75a.75.75 0 0 1 0-1.5h8.5a.75.75 0 0 1 0 1.5z" fill="#153b4f" opacity="1" data-original="#000000" class=""></path></g></svg>